<svg xmlns="http://www.w3.org/2000/svg" id="canvas" viewBox="240.861 297.069 991.746 162.273"><path d="M 321.85,315.70 C 321.90 314.07, 321.22 312.90, 319.63 311.59 C 318.04 310.28, 316.72 309.55, 313.91 309.17 C 311.10 308.80, 309.04 308.66, 305.59 309.72 C 302.14 310.78, 300.43 312.10, 296.66 314.46 C 292.90 316.82, 290.91 318.15, 286.75 321.51 C 282.59 324.86, 280.23 326.78, 275.88 331.25 C 271.52 335.71, 269.07 338.39, 264.96 343.84 C 260.85 349.28, 258.70 352.41, 255.34 358.47 C 251.98 364.53, 250.35 367.85, 248.16 374.15 C 245.96 380.45, 245.08 383.85, 244.36 389.96 C 243.64 396.07, 243.69 399.22, 244.57 404.69 C 245.44 410.17, 246.31 412.86, 248.74 417.35 C 251.17 421.84, 252.92 423.95, 256.72 427.13 C 260.52 430.32, 262.99 431.54, 267.75 433.26 C 272.51 434.99, 275.23 435.39, 280.52 435.77 C 285.80 436.15, 288.74 435.96, 294.17 435.15 C 299.60 434.35, 302.48 433.53, 307.67 431.74 C 312.86 429.95, 315.53 428.77, 320.13 426.19 C 324.74 423.62, 327.00 422.06, 330.70 418.87 C 334.40 415.68, 336.11 413.89, 338.63 410.25 C 341.14 406.61, 342.22 404.58, 343.27 400.66 C 344.31 396.74, 344.48 394.48, 343.84 390.65 C 343.21 386.82, 342.27 384.77, 340.10 381.50 C 337.93 378.23, 336.27 376.74, 333.00 374.30 C 329.73 371.85, 327.62 370.90, 323.74 369.27 C 319.87 367.64, 317.58 367.13, 313.61 366.16 C 309.65 365.18, 307.51 364.84, 303.92 364.39 C 300.33 363.94, 298.39 363.35, 295.66 363.90 C 292.93 364.45, 291.56 365.36, 290.27 367.13 C 288.98 368.90, 288.70 370.57, 289.21 372.75 C 289.73 374.93, 290.54 376.66, 292.86 378.03 C 295.17 379.41, 297.10 379.29, 300.79 379.61 C 304.47 379.93, 306.82 379.50, 311.28 379.64 C 315.74 379.78, 318.31 379.92, 323.09 380.31 C 327.88 380.70, 330.57 380.92, 335.19 381.58 C 339.81 382.24, 342.17 382.58, 346.18 383.60 C 350.19 384.62, 352.16 385.29, 355.24 386.69 C 358.33 388.08, 359.57 388.92, 361.60 390.57 C 363.62 392.23, 364.17 393.07, 365.35 394.96 C 366.54 396.85, 366.89 397.79, 367.54 400.04 C 368.18 402.28, 368.31 403.53, 368.59 406.17 C 368.86 408.82, 368.81 410.39, 368.92 413.27 C 369.03 416.14, 368.92 417.74, 369.13 420.56 C 369.34 423.38, 369.32 424.95, 369.98 427.35 C 370.64 429.75, 371.27 431.03, 372.42 432.56 C 373.57 434.09, 374.42 434.75, 375.75 435.01 C 377.07 435.26, 378.14 434.75, 379.05 433.83 C 379.96 432.91, 379.99 432.03, 380.29 430.42 C 380.60 428.82, 380.56 427.93, 380.56 425.81 C 380.56 423.68, 380.45 422.42, 380.28 419.79 C 380.12 417.15, 379.97 415.63, 379.73 412.63 C 379.49 409.63, 379.59 407.97, 379.09 404.78 C 378.59 401.59, 378.43 399.77, 377.23 396.68 C 376.03 393.59, 375.20 391.94, 373.09 389.31 C 370.97 386.68, 369.66 385.51, 366.67 383.54 C 363.68 381.58, 361.91 380.88, 358.14 379.51 C 354.36 378.14, 352.19 377.65, 347.80 376.70 C 343.40 375.76, 340.96 375.50, 336.18 374.79 C 331.40 374.08, 328.69 373.84, 323.91 373.14 C 319.12 372.45, 316.53 372.18, 312.26 371.29 C 307.99 370.41, 305.82 369.53, 302.55 368.73 C 299.28 367.92, 297.96 367.13, 295.92 367.27 C 293.88 367.40, 293.08 368.37, 292.37 369.40 C 291.66 370.42, 291.60 371.44, 292.37 372.38 C 293.14 373.32, 294.07 373.84, 296.23 374.12 C 298.39 374.39, 300.07 373.67, 303.18 373.75 C 306.29 373.83, 308.31 373.84, 311.77 374.50 C 315.23 375.16, 317.27 375.72, 320.48 377.06 C 323.69 378.40, 325.34 379.33, 327.82 381.19 C 330.31 383.06, 331.34 384.19, 332.89 386.39 C 334.43 388.60, 334.98 389.72, 335.53 392.20 C 336.08 394.69, 336.21 396.00, 335.63 398.83 C 335.06 401.66, 334.52 403.31, 332.66 406.35 C 330.81 409.38, 329.47 411.10, 326.36 414.01 C 323.24 416.91, 321.22 418.45, 317.09 420.86 C 312.96 423.27, 310.46 424.41, 305.70 426.07 C 300.94 427.72, 298.25 428.45, 293.30 429.15 C 288.36 429.85, 285.66 429.93, 280.98 429.56 C 276.30 429.20, 273.95 428.76, 269.89 427.31 C 265.82 425.87, 263.87 424.89, 260.66 422.32 C 257.46 419.76, 256.02 418.19, 253.88 414.48 C 251.73 410.77, 250.83 408.56, 249.93 403.77 C 249.03 398.97, 248.82 396.11, 249.37 390.50 C 249.92 384.89, 250.66 381.65, 252.69 375.71 C 254.72 369.78, 256.26 366.56, 259.52 360.80 C 262.77 355.05, 264.89 352.03, 268.95 346.93 C 273.01 341.82, 275.47 339.30, 279.81 335.29 C 284.16 331.29, 286.55 329.58, 290.68 326.91 C 294.80 324.24, 296.98 323.23, 300.43 321.95 C 303.89 320.66, 305.46 320.74, 307.96 320.49 C 310.46 320.24, 311.27 320.70, 312.92 320.70 C 314.56 320.71, 314.88 320.73, 316.17 320.54 C 317.46 320.34, 318.23 320.71, 319.37 319.75 C 320.50 318.78, 321.80 317.33, 321.85 315.70" style="stroke: black; fill: black;"/><path d="M 407.12,409.19 C 406.06 410.43, 406.19 411.48, 406.04 413.31 C 405.90 415.14, 405.27 416.46, 406.40 418.34 C 407.53 420.23, 409.34 422.35, 411.70 422.72 C 414.07 423.10, 416.75 422.14, 418.22 420.21 C 419.70 418.28, 419.66 415.33, 419.08 413.08 C 418.50 410.84, 416.87 410.18, 415.32 408.99 C 413.77 407.80, 412.97 407.10, 411.33 407.14 C 409.69 407.18, 408.18 407.96, 407.12 409.19" style="stroke: black; fill: black;"/><path d="M 416.44,448.75 C 417.23 447.44, 417.27 446.63, 416.86 444.51 C 416.45 442.39, 415.84 441.19, 414.39 438.16 C 412.94 435.13, 411.48 433.16, 409.64 429.37 C 407.79 425.58, 406.79 423.26, 405.17 419.22 C 403.54 415.18, 402.70 412.97, 401.53 409.17 C 400.36 405.36, 399.81 403.39, 399.31 400.20 C 398.82 397.02, 398.93 395.55, 399.04 393.24 C 399.16 390.93, 399.13 390.14, 399.88 388.65 C 400.63 387.16, 401.18 386.86, 402.79 385.78 C 404.40 384.70, 405.26 384.11, 407.93 383.25 C 410.59 382.38, 412.37 381.93, 416.10 381.45 C 419.83 380.98, 422.14 380.88, 426.58 380.88 C 431.02 380.87, 433.50 381.04, 438.30 381.42 C 443.10 381.80, 445.69 382.16, 450.58 382.79 C 455.46 383.42, 457.97 383.82, 462.72 384.58 C 467.47 385.33, 470.14 385.91, 474.32 386.55 C 478.49 387.20, 480.54 387.88, 483.58 387.80 C 486.63 387.72, 488.29 387.18, 489.54 386.15 C 490.79 385.12, 490.88 383.87, 489.85 382.64 C 488.82 381.40, 487.31 380.68, 484.39 379.98 C 481.46 379.29, 479.39 379.56, 475.24 379.16 C 471.09 378.77, 468.39 378.55, 463.62 378.00 C 458.86 377.44, 456.35 377.04, 451.42 376.39 C 446.48 375.73, 443.87 375.29, 438.96 374.72 C 434.04 374.15, 431.52 373.84, 426.83 373.52 C 422.13 373.20, 419.78 373.00, 415.47 373.13 C 411.17 373.25, 409.02 373.18, 405.32 374.14 C 401.62 375.10, 399.66 375.80, 396.96 377.92 C 394.26 380.03, 393.24 381.73, 391.80 384.71 C 390.37 387.70, 389.91 389.44, 389.79 392.86 C 389.67 396.28, 390.31 398.10, 391.19 401.83 C 392.08 405.56, 392.88 407.48, 394.21 411.50 C 395.54 415.52, 396.40 417.68, 397.84 421.92 C 399.27 426.17, 400.03 428.59, 401.40 432.71 C 402.77 436.84, 403.28 439.28, 404.68 442.55 C 406.08 445.82, 406.76 447.37, 408.41 449.07 C 410.06 450.77, 411.33 451.12, 412.94 451.06 C 414.54 450.99, 415.66 450.06, 416.44 448.75" style="stroke: black; fill: black;"/><path d="M 498.67,411.89 C 499.94 412.88, 500.94 412.93, 503.00 412.85 C 505.07 412.77, 506.47 412.61, 508.99 411.49 C 511.52 410.38, 512.95 409.14, 515.62 407.29 C 518.29 405.44, 519.83 404.32, 522.36 402.23 C 524.88 400.13, 526.27 399.08, 528.25 396.80 C 530.23 394.51, 531.14 393.28, 532.25 390.78 C 533.37 388.29, 533.85 386.90, 533.82 384.31 C 533.78 381.72, 533.47 380.11, 532.06 377.85 C 530.66 375.59, 529.43 374.33, 526.82 372.99 C 524.20 371.66, 522.35 371.05, 519.01 371.19 C 515.67 371.34, 513.76 372.23, 510.12 373.71 C 506.47 375.19, 504.44 376.25, 500.77 378.59 C 497.10 380.92, 495.05 382.35, 491.75 385.39 C 488.45 388.44, 486.75 390.20, 484.26 393.80 C 481.77 397.40, 480.45 399.41, 479.30 403.40 C 478.15 407.40, 477.80 409.77, 478.53 413.79 C 479.27 417.81, 480.25 420.08, 482.97 423.50 C 485.68 426.92, 487.74 428.43, 492.10 430.88 C 496.47 433.32, 499.19 434.26, 504.80 435.74 C 510.42 437.22, 513.73 437.66, 520.18 438.29 C 526.63 438.91, 530.26 438.93, 537.05 438.88 C 543.83 438.83, 547.48 438.55, 554.12 438.02 C 560.77 437.48, 564.59 436.98, 570.27 436.20 C 575.95 435.42, 578.60 435.12, 582.52 434.10 C 586.43 433.08, 588.55 432.38, 589.84 431.10 C 591.14 429.82, 590.69 428.22, 588.99 427.69 C 587.29 427.16, 585.25 427.83, 581.34 428.44 C 577.43 429.05, 574.97 429.83, 569.44 430.75 C 563.91 431.67, 560.16 432.42, 553.68 433.05 C 547.20 433.69, 543.61 433.95, 537.03 433.93 C 530.45 433.91, 526.89 433.77, 520.78 432.97 C 514.67 432.18, 511.51 431.56, 506.48 429.95 C 501.45 428.35, 499.11 427.17, 495.62 424.95 C 492.14 422.73, 490.88 421.34, 489.05 418.84 C 487.21 416.33, 486.88 415.06, 486.47 412.43 C 486.07 409.80, 486.16 408.49, 487.01 405.67 C 487.87 402.85, 488.74 401.18, 490.75 398.33 C 492.77 395.48, 494.23 393.85, 497.10 391.42 C 499.97 388.98, 501.88 387.77, 505.11 386.15 C 508.33 384.53, 510.33 383.96, 513.22 383.33 C 516.12 382.69, 517.54 383.10, 519.59 382.98 C 521.63 382.85, 522.31 382.75, 523.44 382.72 C 524.57 382.68, 524.85 382.62, 525.23 382.81 C 525.61 383.00, 525.62 383.05, 525.34 383.66 C 525.06 384.28, 524.80 384.77, 523.82 385.89 C 522.84 387.02, 522.08 387.78, 520.42 389.27 C 518.77 390.76, 517.77 391.80, 515.54 393.34 C 513.32 394.88, 511.83 395.65, 509.30 396.98 C 506.77 398.32, 505.06 398.66, 502.90 400.03 C 500.74 401.41, 499.75 402.29, 498.51 403.86 C 497.26 405.44, 496.65 406.30, 496.68 407.91 C 496.72 409.51, 497.41 410.90, 498.67 411.89" style="stroke: black; fill: black;"/><path d="M 725.57,321.39 C 724.73 322.53, 724.40 323.27, 724.73 325.21 C 725.07 327.15, 725.59 328.20, 727.27 331.08 C 728.94 333.96, 730.72 335.54, 733.12 339.62 C 735.52 343.69, 736.86 346.27, 739.27 351.45 C 741.68 356.63, 742.90 359.67, 745.18 365.52 C 747.47 371.38, 748.56 374.63, 750.70 380.72 C 752.83 386.80, 753.83 390.03, 755.85 395.93 C 757.87 401.84, 758.87 404.88, 760.79 410.24 C 762.70 415.60, 763.67 418.24, 765.41 422.74 C 767.14 427.25, 767.75 429.39, 769.47 432.75 C 771.19 436.11, 771.82 437.75, 774.02 439.56 C 776.21 441.36, 777.84 441.85, 780.45 441.77 C 783.06 441.69, 785.05 441.23, 787.07 439.15 C 789.10 437.08, 789.51 435.28, 790.58 431.40 C 791.65 427.51, 791.55 425.02, 792.41 419.74 C 793.28 414.46, 793.74 411.28, 794.91 404.99 C 796.07 398.71, 796.75 395.09, 798.23 388.29 C 799.71 381.50, 800.64 377.84, 802.30 371.03 C 803.96 364.23, 804.85 360.66, 806.54 354.24 C 808.22 347.83, 809.07 344.61, 810.71 338.97 C 812.35 333.33, 813.17 330.65, 814.73 326.05 C 816.30 321.44, 817.09 319.40, 818.54 315.92 C 819.98 312.45, 821.22 311.07, 821.97 308.68 C 822.71 306.30, 822.28 305.47, 822.27 304.01 C 822.25 302.55, 822.40 302.16, 821.88 301.37 C 821.36 300.58, 820.67 300.04, 819.67 300.07 C 818.67 300.11, 818.08 300.42, 816.88 301.53 C 815.68 302.63, 814.70 303.17, 813.66 305.61 C 812.62 308.04, 812.59 309.94, 811.68 313.70 C 810.78 317.46, 810.32 319.63, 809.14 324.41 C 807.96 329.20, 807.23 331.91, 805.80 337.64 C 804.37 343.38, 803.58 346.63, 801.98 353.09 C 800.39 359.54, 799.52 363.11, 797.82 369.93 C 796.11 376.75, 795.15 380.42, 793.48 387.19 C 791.80 393.96, 791.03 397.60, 789.44 403.79 C 787.86 409.98, 787.10 413.16, 785.56 418.13 C 784.03 423.11, 782.93 425.39, 781.77 428.66 C 780.62 431.94, 780.06 433.00, 779.79 434.53 C 779.53 436.07, 780.44 436.42, 780.44 436.34 C 780.44 436.27, 780.66 435.63, 779.80 434.16 C 778.94 432.69, 777.88 431.77, 776.13 428.99 C 774.39 426.21, 773.13 424.39, 771.07 420.26 C 769.01 416.12, 767.93 413.52, 765.84 408.32 C 763.75 403.13, 762.70 400.12, 760.62 394.27 C 758.54 388.42, 757.53 385.19, 755.45 379.07 C 753.37 372.95, 752.30 369.67, 750.20 363.67 C 748.11 357.67, 746.97 354.57, 744.98 349.09 C 742.98 343.61, 741.91 340.87, 740.24 336.27 C 738.56 331.67, 738.13 329.20, 736.59 326.08 C 735.06 322.97, 734.09 322.01, 732.56 320.70 C 731.03 319.39, 730.32 319.38, 728.93 319.51 C 727.53 319.65, 726.41 320.25, 725.57 321.39" style="stroke: black; fill: black;"/><path d="M 870.64,394.89 C 871.00 393.37, 870.90 392.24, 869.63 390.90 C 868.35 389.56, 866.84 388.57, 864.26 388.19 C 861.69 387.81, 859.72 387.92, 856.75 389.00 C 853.78 390.09, 852.25 391.17, 849.41 393.61 C 846.58 396.05, 845.18 397.79, 842.58 401.19 C 839.99 404.58, 838.49 406.60, 836.45 410.59 C 834.41 414.57, 833.35 416.86, 832.38 421.09 C 831.40 425.33, 831.02 427.71, 831.59 431.77 C 832.16 435.83, 832.92 438.15, 835.23 441.40 C 837.54 444.65, 839.46 446.15, 843.12 448.02 C 846.78 449.88, 849.13 450.35, 853.53 450.73 C 857.94 451.11, 860.49 450.89, 865.15 449.94 C 869.82 448.98, 872.34 448.04, 876.86 445.97 C 881.38 443.89, 883.78 442.53, 887.76 439.56 C 891.74 436.58, 893.79 434.81, 896.76 431.08 C 899.73 427.35, 900.92 425.08, 902.63 420.93 C 904.34 416.77, 905.08 414.50, 905.31 410.32 C 905.55 406.14, 905.19 403.77, 903.81 400.02 C 902.42 396.27, 901.11 394.35, 898.39 391.57 C 895.67 388.78, 893.75 387.63, 890.22 386.08 C 886.69 384.54, 884.51 384.17, 880.74 383.84 C 876.96 383.50, 874.68 383.45, 871.35 384.42 C 868.02 385.39, 866.09 386.65, 864.11 388.68 C 862.13 390.70, 861.38 392.75, 861.44 394.56 C 861.51 396.36, 862.86 397.31, 864.43 397.68 C 865.99 398.05, 867.31 396.99, 869.26 396.40 C 871.21 395.80, 871.99 395.25, 874.18 394.70 C 876.37 394.15, 877.70 393.64, 880.20 393.65 C 882.71 393.66, 884.31 393.89, 886.70 394.75 C 889.08 395.61, 890.29 396.29, 892.14 397.96 C 893.99 399.64, 894.90 400.72, 895.96 403.14 C 897.03 405.55, 897.49 407.01, 897.46 410.03 C 897.43 413.06, 897.06 414.90, 895.83 418.26 C 894.59 421.61, 893.73 423.63, 891.30 426.80 C 888.87 429.96, 887.14 431.52, 883.68 434.07 C 880.22 436.62, 877.98 437.85, 874.00 439.56 C 870.03 441.27, 867.73 441.98, 863.80 442.62 C 859.87 443.26, 857.72 443.19, 854.35 442.77 C 850.99 442.35, 849.40 441.79, 846.95 440.53 C 844.51 439.27, 843.56 438.45, 842.13 436.47 C 840.69 434.49, 840.16 433.33, 839.79 430.63 C 839.43 427.93, 839.50 426.19, 840.30 422.98 C 841.10 419.78, 841.95 417.76, 843.81 414.60 C 845.66 411.44, 847.14 409.64, 849.57 407.18 C 852.00 404.72, 853.71 403.70, 855.97 402.30 C 858.22 400.90, 859.36 400.72, 860.85 400.17 C 862.34 399.62, 862.55 399.66, 863.40 399.54 C 864.24 399.42, 864.18 399.78, 865.07 399.58 C 865.96 399.37, 866.72 399.46, 867.83 398.52 C 868.95 397.58, 870.29 396.41, 870.64 394.89" style="stroke: black; fill: black;"/><path d="M 974.09,390.58 C 973.48 389.10, 972.58 388.39, 970.54 387.63 C 968.50 386.87, 966.92 386.28, 963.89 386.79 C 960.87 387.30, 958.92 388.35, 955.44 390.19 C 951.95 392.03, 950.07 393.34, 946.46 395.99 C 942.85 398.64, 940.85 400.22, 937.38 403.43 C 933.90 406.65, 932.00 408.47, 929.10 412.05 C 926.19 415.64, 924.67 417.54, 922.85 421.37 C 921.04 425.20, 920.13 427.32, 920.03 431.19 C 919.93 435.06, 920.38 437.41, 922.35 440.71 C 924.32 444.01, 926.15 445.51, 929.89 447.69 C 933.63 449.86, 936.06 450.54, 941.04 451.60 C 946.02 452.66, 948.96 452.79, 954.79 452.98 C 960.62 453.17, 963.95 452.98, 970.21 452.54 C 976.46 452.10, 979.89 451.72, 986.07 450.79 C 992.24 449.86, 995.72 449.10, 1001.08 447.90 C 1006.43 446.71, 1010.70 446.32, 1012.84 444.80 C 1014.98 443.28, 1014.35 440.71, 1011.78 440.30 C 1009.21 439.89, 1005.30 441.70, 1000.00 442.73 C 994.70 443.76, 991.31 444.60, 985.28 445.47 C 979.26 446.33, 975.91 446.77, 969.88 447.06 C 963.85 447.35, 960.57 447.35, 955.13 446.90 C 949.70 446.45, 946.94 445.99, 942.71 444.79 C 938.49 443.59, 936.64 442.57, 934.02 440.89 C 931.40 439.20, 930.75 438.26, 929.62 436.36 C 928.49 434.47, 928.30 433.76, 928.37 431.43 C 928.44 429.09, 928.67 427.60, 929.99 424.67 C 931.30 421.74, 932.45 419.87, 934.94 416.76 C 937.43 413.64, 939.21 411.86, 942.43 409.11 C 945.65 406.36, 947.66 404.91, 951.03 403.01 C 954.41 401.11, 956.27 400.42, 959.29 399.60 C 962.31 398.77, 963.88 399.36, 966.14 398.89 C 968.40 398.42, 969.10 398.03, 970.59 397.26 C 972.09 396.48, 972.92 396.35, 973.62 395.01 C 974.32 393.68, 974.71 392.05, 974.09 390.58" style="stroke: black; fill: black;"/><path d="M 1072.46,400.62 C 1072.63 398.98, 1072.09 397.82, 1070.65 396.26 C 1069.22 394.70, 1068.03 393.72, 1065.28 392.82 C 1062.53 391.91, 1060.44 391.44, 1056.90 391.74 C 1053.36 392.05, 1051.33 392.85, 1047.59 394.34 C 1043.85 395.82, 1041.92 396.85, 1038.19 399.16 C 1034.47 401.47, 1032.40 402.88, 1028.96 405.88 C 1025.53 408.89, 1023.74 410.73, 1021.03 414.20 C 1018.32 417.67, 1017.00 419.57, 1015.40 423.21 C 1013.80 426.85, 1012.96 428.88, 1013.05 432.39 C 1013.13 435.89, 1013.92 437.95, 1015.82 440.74 C 1017.73 443.53, 1019.37 445.03, 1022.57 446.36 C 1025.77 447.69, 1027.99 447.80, 1031.81 447.40 C 1035.62 446.99, 1037.71 446.05, 1041.65 444.31 C 1045.60 442.57, 1047.66 441.29, 1051.51 438.69 C 1055.37 436.10, 1057.35 434.46, 1060.93 431.34 C 1064.52 428.21, 1066.33 426.27, 1069.44 423.06 C 1072.54 419.84, 1074.43 417.94, 1076.44 415.26 C 1078.46 412.57, 1079.16 411.13, 1079.52 409.63 C 1079.87 408.14, 1078.95 407.52, 1078.22 407.78 C 1077.49 408.04, 1076.25 408.87, 1075.87 410.93 C 1075.48 412.98, 1075.70 414.76, 1076.31 418.06 C 1076.93 421.35, 1077.77 423.63, 1078.94 427.39 C 1080.11 431.14, 1080.72 433.26, 1082.17 436.82 C 1083.63 440.38, 1084.25 442.20, 1086.20 445.19 C 1088.14 448.18, 1089.27 449.65, 1091.91 451.75 C 1094.55 453.85, 1096.36 454.83, 1099.38 455.68 C 1102.41 456.54, 1104.47 456.45, 1107.03 456.04 C 1109.59 455.63, 1110.74 454.85, 1112.18 453.63 C 1113.62 452.42, 1114.19 451.32, 1114.24 449.97 C 1114.30 448.62, 1113.39 447.65, 1112.45 446.88 C 1111.51 446.10, 1110.78 446.36, 1109.53 446.10 C 1108.27 445.83, 1107.71 445.63, 1106.18 445.56 C 1104.65 445.48, 1103.52 446.02, 1101.87 445.71 C 1100.21 445.40, 1099.46 445.17, 1097.90 444.02 C 1096.35 442.87, 1095.52 442.07, 1094.09 439.96 C 1092.67 437.85, 1091.86 436.47, 1090.78 433.49 C 1089.69 430.50, 1089.24 428.54, 1088.67 425.04 C 1088.09 421.54, 1088.45 419.30, 1087.88 415.99 C 1087.32 412.67, 1087.30 410.77, 1085.83 408.45 C 1084.36 406.13, 1082.81 405.16, 1080.54 404.37 C 1078.27 403.59, 1076.73 403.45, 1074.48 404.52 C 1072.23 405.59, 1071.43 407.03, 1069.29 409.72 C 1067.14 412.42, 1066.38 414.77, 1063.75 417.99 C 1061.12 421.22, 1059.42 423.00, 1056.15 425.83 C 1052.88 428.66, 1050.91 430.08, 1047.38 432.15 C 1043.85 434.23, 1041.80 435.13, 1038.50 436.22 C 1035.19 437.30, 1033.40 437.38, 1030.85 437.59 C 1028.30 437.79, 1027.35 437.60, 1025.75 437.26 C 1024.15 436.92, 1023.57 436.84, 1022.87 435.87 C 1022.16 434.89, 1022.15 434.27, 1022.24 432.40 C 1022.33 430.52, 1022.29 429.17, 1023.31 426.49 C 1024.33 423.82, 1025.20 421.95, 1027.36 419.02 C 1029.52 416.10, 1031.11 414.39, 1034.11 411.87 C 1037.11 409.35, 1039.08 408.11, 1042.34 406.43 C 1045.61 404.75, 1047.48 404.06, 1050.43 403.45 C 1053.39 402.84, 1054.77 403.20, 1057.11 403.40 C 1059.45 403.60, 1060.36 404.13, 1062.15 404.45 C 1063.93 404.76, 1064.51 404.97, 1066.03 404.98 C 1067.56 404.98, 1068.48 405.35, 1069.76 404.48 C 1071.05 403.61, 1072.28 402.27, 1072.46 400.62" style="stroke: black; fill: black;"/><path d="M 1128.16,335.90 C 1127.04 336.93, 1126.76 337.79, 1126.62 339.89 C 1126.47 341.99, 1126.70 343.19, 1127.43 346.41 C 1128.17 349.63, 1129.30 351.72, 1130.30 356.00 C 1131.30 360.27, 1131.74 362.86, 1132.44 367.78 C 1133.14 372.69, 1133.42 375.47, 1133.81 380.58 C 1134.19 385.68, 1134.27 388.41, 1134.35 393.29 C 1134.43 398.17, 1134.36 400.69, 1134.21 404.97 C 1134.06 409.25, 1133.64 411.31, 1133.59 414.70 C 1133.55 418.09, 1133.21 419.62, 1133.99 421.92 C 1134.77 424.22, 1135.66 425.17, 1137.49 426.18 C 1139.32 427.19, 1140.90 427.36, 1143.13 426.97 C 1145.37 426.59, 1146.80 426.10, 1148.67 424.27 C 1150.54 422.44, 1150.58 420.55, 1152.47 417.83 C 1154.36 415.11, 1155.32 413.32, 1158.13 410.67 C 1160.93 408.03, 1162.76 406.63, 1166.49 404.59 C 1170.22 402.55, 1172.45 401.64, 1176.77 400.47 C 1181.09 399.30, 1183.62 398.94, 1188.10 398.75 C 1192.58 398.56, 1195.02 398.74, 1199.19 399.51 C 1203.36 400.29, 1205.58 401.04, 1208.95 402.62 C 1212.32 404.21, 1213.86 405.40, 1216.03 407.46 C 1218.21 409.52, 1218.90 410.77, 1219.83 412.92 C 1220.76 415.07, 1220.88 415.99, 1220.69 418.19 C 1220.50 420.38, 1220.28 421.46, 1218.87 423.88 C 1217.46 426.31, 1216.44 427.76, 1213.65 430.29 C 1210.85 432.81, 1208.96 434.25, 1204.90 436.52 C 1200.83 438.79, 1198.25 439.91, 1193.31 441.63 C 1188.38 443.35, 1185.53 444.11, 1180.22 445.11 C 1174.90 446.11, 1171.96 446.41, 1166.75 446.65 C 1161.53 446.88, 1158.68 446.76, 1154.14 446.30 C 1149.61 445.83, 1147.40 445.40, 1144.07 444.34 C 1140.74 443.29, 1139.57 442.03, 1137.50 441.02 C 1135.43 440.01, 1135.02 439.88, 1133.71 439.28 C 1132.41 438.67, 1132.07 437.94, 1130.99 437.99 C 1129.91 438.04, 1128.77 438.37, 1128.32 439.52 C 1127.88 440.68, 1127.80 441.85, 1128.77 443.75 C 1129.74 445.66, 1130.46 447.48, 1133.17 449.04 C 1135.89 450.61, 1138.23 450.85, 1142.34 451.57 C 1146.44 452.30, 1148.76 452.46, 1153.70 452.66 C 1158.65 452.85, 1161.56 452.90, 1167.08 452.54 C 1172.59 452.18, 1175.64 451.87, 1181.27 450.86 C 1186.91 449.85, 1189.89 449.15, 1195.24 447.49 C 1200.59 445.83, 1203.36 444.83, 1208.03 442.57 C 1212.70 440.30, 1214.97 439.03, 1218.58 436.18 C 1222.20 433.34, 1223.94 431.79, 1226.13 428.33 C 1228.32 424.88, 1229.24 422.71, 1229.53 418.91 C 1229.83 415.11, 1229.27 412.81, 1227.61 409.34 C 1225.96 405.86, 1224.42 404.21, 1221.27 401.55 C 1218.12 398.89, 1216.04 397.77, 1211.86 396.03 C 1207.67 394.29, 1205.15 393.62, 1200.35 392.84 C 1195.54 392.07, 1192.87 391.93, 1187.82 392.15 C 1182.77 392.37, 1180.01 392.74, 1175.10 393.93 C 1170.19 395.11, 1167.69 396.07, 1163.25 398.09 C 1158.82 400.12, 1156.69 401.56, 1152.93 404.06 C 1149.18 406.56, 1147.33 408.08, 1144.48 410.60 C 1141.63 413.12, 1139.93 414.42, 1138.69 416.67 C 1137.45 418.92, 1137.93 420.45, 1138.29 421.84 C 1138.65 423.23, 1139.67 423.77, 1140.49 423.60 C 1141.31 423.44, 1142.05 422.85, 1142.39 421.02 C 1142.72 419.19, 1142.40 417.70, 1142.18 414.47 C 1141.96 411.24, 1141.57 409.14, 1141.29 404.87 C 1141.02 400.59, 1141.03 398.04, 1140.81 393.10 C 1140.59 388.16, 1140.48 385.37, 1140.20 380.16 C 1139.91 374.96, 1139.71 372.15, 1139.39 367.07 C 1139.07 361.99, 1138.92 359.30, 1138.61 354.75 C 1138.29 350.21, 1138.38 347.78, 1137.81 344.36 C 1137.24 340.95, 1136.87 339.62, 1135.75 337.70 C 1134.64 335.77, 1133.76 335.11, 1132.24 334.75 C 1130.72 334.39, 1129.29 334.87, 1128.16 335.90" style="stroke: black; fill: black;"/></svg>