<svg xmlns="http://www.w3.org/2000/svg" id="canvas" viewBox="241.995 280.027 1112.539 210.733"><path d="M 278.96,283.79 C 277.65 284.92, 277.34 286.45, 276.78 289.82 C 276.22 293.18, 276.64 295.25, 276.14 300.61 C 275.65 305.97, 275.35 309.54, 274.30 316.63 C 273.25 323.71, 272.56 327.74, 270.89 336.01 C 269.22 344.29, 268.07 348.95, 265.95 358.01 C 263.82 367.06, 262.52 372.04, 260.26 381.30 C 258.01 390.55, 256.75 395.40, 254.66 404.28 C 252.58 413.17, 251.46 417.66, 249.83 425.71 C 248.21 433.76, 247.48 437.68, 246.54 444.52 C 245.60 451.37, 245.31 454.45, 245.12 459.93 C 244.94 465.40, 244.85 467.67, 245.61 471.91 C 246.37 476.15, 246.79 478.16, 248.92 481.12 C 251.05 484.09, 252.86 485.43, 256.28 486.72 C 259.69 488.01, 261.78 487.84, 266.00 487.57 C 270.22 487.29, 272.42 486.60, 277.37 485.36 C 282.33 484.12, 285.08 483.12, 290.77 481.37 C 296.45 479.61, 299.58 478.48, 305.80 476.57 C 312.02 474.67, 315.38 473.65, 321.87 471.85 C 328.35 470.05, 331.75 469.16, 338.22 467.58 C 344.68 466.00, 347.96 465.30, 354.19 463.94 C 360.41 462.58, 363.50 461.98, 369.35 460.77 C 375.20 459.56, 378.05 459.04, 383.44 457.89 C 388.83 456.74, 391.40 456.25, 396.30 455.04 C 401.20 453.83, 403.49 453.24, 407.93 451.84 C 412.37 450.43, 414.50 449.73, 418.49 448.03 C 422.48 446.33, 424.35 445.45, 427.88 443.33 C 431.40 441.22, 433.11 440.07, 436.13 437.45 C 439.15 434.83, 440.58 433.37, 442.97 430.23 C 445.35 427.09, 446.40 425.35, 448.06 421.75 C 449.72 418.16, 450.44 416.16, 451.26 412.26 C 452.09 408.36, 452.31 406.23, 452.17 402.25 C 452.04 398.27, 451.78 396.12, 450.58 392.37 C 449.38 388.61, 448.53 386.58, 446.18 383.46 C 443.82 380.35, 442.22 378.81, 438.80 376.80 C 435.38 374.80, 433.26 373.97, 429.10 373.43 C 424.93 372.90, 422.49 373.02, 417.97 374.12 C 413.45 375.22, 411.00 376.26, 406.48 378.92 C 401.96 381.58, 399.55 383.40, 395.36 387.41 C 391.17 391.41, 388.98 393.87, 385.53 398.96 C 382.08 404.05, 380.40 407.10, 378.13 412.85 C 375.86 418.60, 374.85 421.81, 374.20 427.73 C 373.54 433.64, 373.56 436.85, 374.83 442.43 C 376.11 448.00, 377.33 450.92, 380.58 455.62 C 383.84 460.32, 386.16 462.53, 391.09 465.94 C 396.03 469.35, 399.10 470.73, 405.24 472.66 C 411.39 474.58, 415.51 474.96, 421.82 475.56 C 428.13 476.17, 431.78 476.08, 436.78 475.67 C 441.79 475.27, 444.94 474.75, 446.84 473.53 C 448.74 472.30, 448.35 470.21, 446.28 469.54 C 444.21 468.87, 441.29 470.07, 436.49 470.18 C 431.70 470.28, 428.26 470.58, 422.32 470.07 C 416.38 469.56, 412.43 469.33, 406.79 467.63 C 401.15 465.93, 398.47 464.59, 394.12 461.57 C 389.78 458.55, 387.86 456.60, 385.06 452.53 C 382.26 448.46, 381.22 446.06, 380.12 441.22 C 379.01 436.38, 378.92 433.60, 379.52 428.32 C 380.12 423.05, 381.00 420.08, 383.12 414.84 C 385.23 409.60, 386.84 406.73, 390.10 402.12 C 393.36 397.52, 395.50 395.28, 399.42 391.81 C 403.34 388.33, 405.69 386.82, 409.71 384.75 C 413.73 382.68, 415.90 382.07, 419.52 381.44 C 423.15 380.80, 424.89 381.02, 427.84 381.58 C 430.78 382.14, 432.01 382.82, 434.26 384.26 C 436.51 385.70, 437.49 386.63, 439.08 388.78 C 440.67 390.94, 441.34 392.29, 442.23 395.05 C 443.12 397.81, 443.41 399.49, 443.55 402.59 C 443.69 405.69, 443.56 407.40, 442.93 410.54 C 442.31 413.68, 441.73 415.33, 440.42 418.29 C 439.11 421.25, 438.29 422.68, 436.38 425.34 C 434.47 427.99, 433.35 429.24, 430.85 431.57 C 428.35 433.91, 426.94 434.99, 423.90 437.02 C 420.85 439.05, 419.22 439.96, 415.62 441.72 C 412.02 443.48, 410.04 444.27, 405.87 445.81 C 401.71 447.34, 399.51 448.03, 394.79 449.40 C 390.06 450.77, 387.54 451.35, 382.24 452.64 C 376.94 453.93, 374.11 454.53, 368.29 455.86 C 362.47 457.19, 359.38 457.84, 353.14 459.27 C 346.90 460.70, 343.61 461.42, 337.10 463.00 C 330.60 464.59, 327.16 465.48, 320.61 467.20 C 314.06 468.93, 310.65 469.91, 304.37 471.61 C 298.08 473.32, 294.88 474.33, 289.20 475.73 C 283.52 477.13, 280.67 477.83, 275.97 478.61 C 271.26 479.39, 269.06 479.57, 265.67 479.61 C 262.29 479.65, 261.17 479.44, 259.03 478.80 C 256.89 478.16, 256.44 478.08, 254.98 476.42 C 253.53 474.76, 252.73 473.81, 251.77 470.51 C 250.81 467.21, 250.40 465.01, 250.19 459.92 C 249.98 454.82, 250.07 451.72, 250.72 445.01 C 251.38 438.31, 252.00 434.40, 253.46 426.41 C 254.92 418.42, 256.00 413.92, 258.03 405.06 C 260.05 396.20, 261.31 391.36, 263.59 382.12 C 265.88 372.87, 267.20 367.90, 269.46 358.85 C 271.72 349.81, 272.93 345.16, 274.89 336.89 C 276.85 328.63, 277.75 324.61, 279.28 317.53 C 280.81 310.46, 281.49 306.90, 282.53 301.52 C 283.56 296.14, 284.30 294.10, 284.46 290.63 C 284.63 287.16, 284.43 285.52, 283.33 284.15 C 282.23 282.79, 280.27 282.66, 278.96 283.79" style="stroke: black; fill: black;"/><path d="M 545.73,398.40 C 545.90 396.75, 545.33 395.67, 543.91 394.00 C 542.49 392.33, 541.46 391.14, 538.65 390.05 C 535.83 388.96, 533.62 388.56, 529.85 388.57 C 526.09 388.58, 523.99 388.96, 519.84 390.09 C 515.68 391.22, 513.46 391.97, 509.07 394.20 C 504.69 396.44, 502.28 397.83, 497.92 401.27 C 493.57 404.71, 491.17 406.88, 487.30 411.38 C 483.43 415.89, 481.48 418.64, 478.56 423.78 C 475.64 428.93, 474.32 431.86, 472.71 437.11 C 471.09 442.36, 470.54 445.19, 470.48 450.04 C 470.43 454.88, 470.75 457.44, 472.43 461.32 C 474.11 465.19, 475.58 467.22, 478.88 469.41 C 482.19 471.59, 484.69 472.21, 488.97 472.25 C 493.25 472.28, 495.71 471.52, 500.29 469.59 C 504.87 467.66, 507.24 466.06, 511.87 462.60 C 516.51 459.14, 518.94 456.84, 523.47 452.31 C 528.00 447.77, 530.38 444.97, 534.52 439.92 C 538.66 434.87, 540.69 431.93, 544.16 427.06 C 547.62 422.20, 549.16 419.57, 551.85 415.60 C 554.53 411.63, 556.44 410.02, 557.56 407.20 C 558.69 404.37, 558.31 402.67, 557.47 401.47 C 556.62 400.26, 554.67 399.97, 553.35 401.19 C 552.03 402.41, 551.43 403.92, 550.86 407.57 C 550.28 411.23, 550.65 414.07, 550.48 419.48 C 550.31 424.88, 550.20 428.49, 550.00 434.60 C 549.80 440.72, 549.56 444.36, 549.48 450.06 C 549.40 455.76, 549.36 458.86, 549.62 463.11 C 549.89 467.36, 549.97 468.97, 550.80 471.31 C 551.63 473.65, 552.69 474.24, 553.77 474.80 C 554.86 475.36, 555.55 475.03, 556.23 474.12 C 556.90 473.22, 557.09 472.57, 557.17 470.27 C 557.24 467.97, 556.91 466.66, 556.59 462.62 C 556.27 458.58, 555.65 455.59, 555.57 450.06 C 555.50 444.53, 555.69 440.94, 556.20 434.97 C 556.71 429.00, 557.29 425.48, 558.14 420.21 C 558.98 414.94, 560.19 412.38, 560.44 408.63 C 560.68 404.88, 560.53 403.27, 559.34 401.45 C 558.15 399.64, 556.34 399.17, 554.48 399.55 C 552.62 399.94, 551.66 400.81, 550.04 403.38 C 548.43 405.96, 548.49 408.29, 546.42 412.41 C 544.34 416.54, 542.87 419.16, 539.69 424.00 C 536.50 428.84, 534.50 431.73, 530.49 436.61 C 526.48 441.49, 524.08 444.20, 519.65 448.39 C 515.22 452.59, 512.72 454.67, 508.34 457.60 C 503.95 460.53, 501.58 461.67, 497.73 463.05 C 493.87 464.43, 491.97 464.54, 489.05 464.50 C 486.13 464.46, 485.12 464.06, 483.13 462.83 C 481.13 461.59, 480.29 460.89, 479.07 458.32 C 477.84 455.75, 477.13 453.89, 476.99 449.98 C 476.86 446.07, 477.08 443.45, 478.39 438.78 C 479.70 434.10, 480.86 431.30, 483.52 426.59 C 486.18 421.89, 488.05 419.29, 491.69 415.24 C 495.34 411.19, 497.66 409.24, 501.74 406.34 C 505.81 403.44, 508.12 402.31, 512.06 400.75 C 516.00 399.18, 518.08 398.82, 521.44 398.51 C 524.80 398.21, 526.25 398.63, 528.86 399.23 C 531.48 399.83, 532.48 400.85, 534.50 401.51 C 536.53 402.17, 537.26 402.38, 538.98 402.52 C 540.69 402.67, 541.72 403.06, 543.07 402.23 C 544.43 401.41, 545.57 400.04, 545.73 398.40" style="stroke: black; fill: black;"/><path d="M 607.55,406.64 C 606.23 407.69, 605.56 408.80, 605.20 411.54 C 604.84 414.27, 605.63 416.13, 605.74 420.31 C 605.85 424.49, 605.92 427.42, 605.75 432.43 C 605.57 437.43, 605.34 440.40, 604.88 445.31 C 604.43 450.22, 603.87 452.96, 603.48 456.98 C 603.09 460.99, 602.25 463.00, 602.93 465.38 C 603.61 467.76, 605.07 468.61, 606.90 468.88 C 608.73 469.15, 610.65 468.79, 612.08 466.75 C 613.51 464.71, 613.30 462.75, 614.07 458.67 C 614.84 454.59, 614.84 451.63, 615.94 446.36 C 617.05 441.10, 617.77 437.90, 619.60 432.34 C 621.43 426.79, 622.60 423.76, 625.09 418.59 C 627.58 413.42, 629.06 410.82, 632.04 406.51 C 635.02 402.20, 636.68 400.25, 640.00 397.03 C 643.33 393.82, 645.09 392.47, 648.66 390.45 C 652.24 388.43, 654.38 387.92, 657.86 386.95 C 661.34 385.99, 663.32 386.41, 666.07 385.63 C 668.82 384.85, 670.56 384.33, 671.61 383.05 C 672.66 381.77, 672.68 380.32, 671.33 379.21 C 669.98 378.10, 668.04 377.39, 664.87 377.49 C 661.69 377.59, 659.40 378.22, 655.47 379.70 C 651.54 381.17, 649.15 382.25, 645.21 384.88 C 641.28 387.51, 639.36 389.15, 635.80 392.85 C 632.24 396.55, 630.56 398.70, 627.43 403.37 C 624.30 408.03, 622.82 410.78, 620.15 416.17 C 617.47 421.57, 616.27 424.68, 614.05 430.34 C 611.83 436.00, 610.85 439.20, 609.05 444.46 C 607.25 449.71, 606.14 452.55, 605.05 456.60 C 603.96 460.66, 603.18 462.42, 603.58 464.73 C 603.98 467.03, 605.60 467.92, 607.05 468.12 C 608.50 468.32, 609.97 467.82, 610.84 465.72 C 611.71 463.61, 611.19 461.55, 611.41 457.58 C 611.63 453.62, 611.55 450.83, 611.92 445.90 C 612.29 440.97, 612.75 437.99, 613.25 432.92 C 613.75 427.86, 614.06 424.89, 614.41 420.55 C 614.76 416.22, 615.52 414.12, 615.01 411.27 C 614.49 408.41, 613.33 407.21, 611.84 406.28 C 610.35 405.36, 608.88 405.59, 607.55 406.64" style="stroke: black; fill: black;"/><path d="M 715.21,389.92 C 713.80 390.77, 712.98 391.75, 712.37 394.36 C 711.76 396.96, 712.40 398.76, 712.17 402.95 C 711.94 407.14, 711.86 410.04, 711.23 415.30 C 710.60 420.56, 710.02 423.70, 709.02 429.26 C 708.02 434.81, 707.34 438.01, 706.24 443.07 C 705.15 448.14, 704.15 450.65, 703.53 454.58 C 702.91 458.52, 702.31 460.34, 703.14 462.77 C 703.97 465.19, 705.44 466.22, 707.68 466.70 C 709.93 467.18, 712.14 467.28, 714.38 465.17 C 716.63 463.06, 716.63 460.51, 718.91 456.15 C 721.19 451.80, 722.49 448.84, 725.79 443.40 C 729.09 437.97, 731.21 434.71, 735.42 428.98 C 739.63 423.25, 742.10 419.95, 746.83 414.77 C 751.56 409.58, 754.24 406.96, 759.08 403.05 C 763.92 399.13, 766.60 397.51, 771.03 395.19 C 775.47 392.88, 777.67 392.18, 781.24 391.47 C 784.80 390.77, 786.22 390.92, 788.87 391.65 C 791.52 392.38, 792.39 392.88, 794.48 395.12 C 796.57 397.36, 797.70 398.87, 799.30 402.83 C 800.90 406.78, 801.59 409.42, 802.48 414.89 C 803.38 420.35, 803.56 423.86, 803.78 430.14 C 803.99 436.42, 803.76 440.11, 803.55 446.27 C 803.34 452.44, 802.98 455.86, 802.73 460.97 C 802.48 466.08, 802.02 468.44, 802.30 471.83 C 802.58 475.22, 803.15 476.72, 804.14 477.91 C 805.14 479.11, 806.37 479.02, 807.28 477.81 C 808.19 476.59, 808.42 475.17, 808.71 471.84 C 809.01 468.51, 808.71 466.24, 808.77 461.15 C 808.82 456.06, 808.88 452.64, 808.97 446.41 C 809.06 440.18, 809.34 436.47, 809.23 430.00 C 809.11 423.53, 809.13 419.96, 808.40 414.04 C 807.67 408.13, 807.31 405.21, 805.58 400.43 C 803.84 395.65, 802.71 393.26, 799.71 390.15 C 796.72 387.03, 794.56 385.80, 790.59 384.85 C 786.61 383.90, 784.27 384.27, 779.84 385.40 C 775.41 386.53, 773.19 387.71, 768.43 390.50 C 763.66 393.29, 761.02 395.12, 756.01 399.34 C 751.01 403.57, 748.31 406.30, 743.41 411.63 C 738.50 416.96, 736.00 420.29, 731.49 425.98 C 726.98 431.67, 724.70 434.88, 720.85 440.08 C 716.99 445.28, 715.10 448.09, 712.23 451.97 C 709.35 455.85, 707.44 457.13, 706.48 459.49 C 705.51 461.85, 706.71 463.14, 707.42 463.76 C 708.13 464.38, 709.30 464.21, 710.03 462.60 C 710.76 460.98, 710.58 459.36, 711.07 455.69 C 711.57 452.02, 711.69 449.31, 712.51 444.26 C 713.33 439.21, 714.02 436.00, 715.16 430.43 C 716.30 424.87, 717.10 421.74, 718.20 416.44 C 719.29 411.14, 719.89 408.21, 720.64 403.93 C 721.39 399.64, 722.19 397.79, 721.95 395.02 C 721.71 392.25, 720.80 391.09, 719.45 390.07 C 718.11 389.05, 716.63 389.06, 715.21 389.92" style="stroke: black; fill: black;"/><path d="M 1090.17,305.21 C 1090.31 303.54, 1089.78 302.27, 1088.17 300.55 C 1086.57 298.83, 1085.26 297.54, 1082.14 296.62 C 1079.02 295.71, 1076.76 295.76, 1072.57 295.97 C 1068.38 296.18, 1066.14 296.47, 1061.19 297.66 C 1056.24 298.86, 1053.58 299.64, 1047.81 301.94 C 1042.05 304.25, 1038.82 305.59, 1032.38 309.20 C 1025.93 312.82, 1022.32 315.00, 1015.58 320.01 C 1008.83 325.02, 1005.23 328.00, 998.66 334.26 C 992.09 340.52, 988.60 344.07, 982.73 351.33 C 976.86 358.59, 973.94 362.71, 969.30 370.57 C 964.67 378.42, 962.66 382.74, 959.57 390.62 C 956.47 398.50, 955.21 402.56, 953.82 409.96 C 952.44 417.37, 952.15 421.12, 952.65 427.65 C 953.14 434.19, 953.91 437.37, 956.30 442.64 C 958.69 447.90, 960.44 450.36, 964.61 453.99 C 968.77 457.62, 971.54 459.03, 977.12 460.80 C 982.70 462.57, 986.02 462.84, 992.52 462.85 C 999.02 462.86, 1002.68 462.33, 1009.60 460.85 C 1016.52 459.36, 1020.27 458.10, 1027.13 455.44 C 1033.98 452.77, 1037.59 451.02, 1043.87 447.53 C 1050.15 444.05, 1053.28 441.95, 1058.55 438.01 C 1063.82 434.07, 1066.27 431.92, 1070.23 427.83 C 1074.19 423.74, 1075.81 421.58, 1078.35 417.56 C 1080.89 413.54, 1081.73 411.49, 1082.93 407.71 C 1084.14 403.93, 1084.49 402.01, 1084.36 398.67 C 1084.22 395.33, 1083.43 393.71, 1082.24 391.01 C 1081.06 388.30, 1080.12 387.11, 1078.45 385.14 C 1076.78 383.17, 1075.73 382.22, 1073.89 381.15 C 1072.05 380.09, 1070.88 379.85, 1069.26 379.82 C 1067.63 379.80, 1066.71 380.09, 1065.76 381.03 C 1064.80 381.96, 1064.48 383.20, 1064.49 384.49 C 1064.49 385.77, 1065.05 386.40, 1065.78 387.45 C 1066.51 388.50, 1067.06 388.84, 1068.13 389.73 C 1069.21 390.62, 1070.01 390.85, 1071.16 391.91 C 1072.30 392.97, 1073.01 393.51, 1073.85 395.03 C 1074.69 396.54, 1074.98 397.32, 1075.35 399.50 C 1075.73 401.68, 1076.18 402.93, 1075.71 405.93 C 1075.24 408.93, 1074.88 410.84, 1073.01 414.50 C 1071.14 418.17, 1069.83 420.30, 1066.36 424.25 C 1062.89 428.20, 1060.61 430.38, 1055.67 434.25 C 1050.73 438.12, 1047.71 440.21, 1041.67 443.60 C 1035.64 447.00, 1032.11 448.70, 1025.50 451.22 C 1018.90 453.74, 1015.23 454.89, 1008.64 456.20 C 1002.05 457.52, 998.54 457.87, 992.56 457.78 C 986.58 457.69, 983.63 457.30, 978.73 455.74 C 973.82 454.19, 971.64 453.03, 968.04 449.99 C 964.45 446.95, 962.96 445.09, 960.76 440.55 C 958.56 436.00, 957.66 433.24, 957.05 427.26 C 956.45 421.29, 956.54 417.72, 957.72 410.65 C 958.90 403.59, 960.04 399.60, 962.96 391.94 C 965.88 384.27, 967.81 380.01, 972.31 372.33 C 976.80 364.65, 979.67 360.61, 985.44 353.53 C 991.21 346.45, 994.67 342.98, 1001.17 336.93 C 1007.67 330.88, 1011.27 328.00, 1017.95 323.28 C 1024.63 318.56, 1028.22 316.53, 1034.57 313.32 C 1040.92 310.10, 1044.14 308.96, 1049.70 307.20 C 1055.26 305.45, 1057.91 304.97, 1062.37 304.54 C 1066.83 304.12, 1068.76 304.40, 1071.99 305.08 C 1075.23 305.76, 1076.28 307.14, 1078.56 307.94 C 1080.83 308.73, 1081.61 308.87, 1083.38 309.05 C 1085.16 309.24, 1086.09 309.65, 1087.44 308.88 C 1088.80 308.11, 1090.02 306.87, 1090.17 305.21" style="stroke: black; fill: black;"/><path d="M 1164.03,380.13 C 1162.54 380.49, 1161.59 380.97, 1160.50 383.04 C 1159.40 385.11, 1159.31 386.65, 1158.56 390.48 C 1157.82 394.31, 1157.78 396.98, 1156.78 402.18 C 1155.77 407.39, 1154.97 410.56, 1153.54 416.50 C 1152.10 422.43, 1151.18 426.01, 1149.61 431.86 C 1148.05 437.71, 1147.21 440.93, 1145.71 445.75 C 1144.21 450.57, 1142.67 452.64, 1142.11 455.95 C 1141.56 459.26, 1141.77 460.80, 1142.93 462.30 C 1144.09 463.80, 1145.99 464.24, 1147.90 463.45 C 1149.81 462.66, 1151.10 461.46, 1152.48 458.35 C 1153.87 455.25, 1153.56 452.68, 1154.82 447.93 C 1156.08 443.18, 1156.77 440.10, 1158.77 434.59 C 1160.76 429.08, 1162.02 425.90, 1164.78 420.39 C 1167.54 414.87, 1169.14 411.94, 1172.58 407.00 C 1176.02 402.06, 1178.01 399.59, 1181.97 395.67 C 1185.93 391.75, 1188.08 390.07, 1192.37 387.38 C 1196.66 384.70, 1198.95 383.71, 1203.40 382.25 C 1207.85 380.78, 1210.08 380.44, 1214.63 380.06 C 1219.18 379.68, 1221.52 379.89, 1226.15 380.35 C 1230.78 380.81, 1233.16 381.38, 1237.79 382.37 C 1242.41 383.35, 1244.69 384.07, 1249.28 385.29 C 1253.86 386.51, 1256.16 387.31, 1260.71 388.46 C 1265.25 389.61, 1267.53 390.26, 1272.01 391.05 C 1276.49 391.83, 1278.72 392.18, 1283.10 392.39 C 1287.48 392.59, 1289.73 392.60, 1293.88 392.09 C 1298.03 391.58, 1300.14 391.15, 1303.85 389.83 C 1307.55 388.50, 1309.44 387.65, 1312.41 385.47 C 1315.38 383.29, 1316.98 381.90, 1318.72 378.94 C 1320.45 375.97, 1321.04 373.94, 1321.08 370.64 C 1321.12 367.34, 1320.67 365.28, 1318.93 362.42 C 1317.18 359.56, 1315.62 357.77, 1312.34 356.34 C 1309.05 354.91, 1306.66 354.89, 1302.48 355.29 C 1298.30 355.68, 1295.95 356.41, 1291.44 358.32 C 1286.92 360.23, 1284.43 361.61, 1279.91 364.86 C 1275.39 368.11, 1272.93 370.12, 1268.85 374.57 C 1264.77 379.02, 1262.63 381.71, 1259.53 387.10 C 1256.43 392.49, 1254.99 395.61, 1253.35 401.53 C 1251.71 407.46, 1251.08 410.75, 1251.34 416.73 C 1251.60 422.72, 1252.24 425.98, 1254.64 431.45 C 1257.04 436.92, 1259.02 439.67, 1263.35 444.08 C 1267.68 448.48, 1270.49 450.42, 1276.29 453.48 C 1282.09 456.53, 1285.63 457.64, 1292.35 459.37 C 1299.08 461.10, 1302.94 461.49, 1309.92 462.12 C 1316.89 462.75, 1320.89 462.63, 1327.22 462.51 C 1333.55 462.39, 1336.91 462.20, 1341.56 461.53 C 1346.21 460.87, 1348.82 460.39, 1350.48 459.19 C 1352.14 458.00, 1351.77 456.15, 1349.86 455.56 C 1347.96 454.97, 1345.53 455.89, 1340.97 456.24 C 1336.42 456.60, 1333.21 457.12, 1327.08 457.34 C 1320.94 457.57, 1317.02 457.88, 1310.31 457.37 C 1303.61 456.85, 1299.89 456.41, 1293.55 454.77 C 1287.20 453.12, 1283.91 451.97, 1278.61 449.12 C 1273.30 446.27, 1270.85 444.45, 1267.02 440.50 C 1263.18 436.54, 1261.52 434.15, 1259.43 429.35 C 1257.34 424.56, 1256.78 421.80, 1256.58 416.52 C 1256.38 411.24, 1256.91 408.30, 1258.43 402.96 C 1259.95 397.62, 1261.27 394.71, 1264.19 389.83 C 1267.11 384.94, 1269.16 382.46, 1273.02 378.53 C 1276.89 374.61, 1279.31 372.83, 1283.51 370.21 C 1287.72 367.59, 1290.17 366.62, 1294.05 365.45 C 1297.93 364.29, 1300.03 364.33, 1302.92 364.38 C 1305.81 364.44, 1306.83 365.15, 1308.48 365.74 C 1310.14 366.34, 1310.54 366.49, 1311.19 367.38 C 1311.84 368.26, 1311.92 368.87, 1311.73 370.17 C 1311.55 371.46, 1311.25 372.25, 1310.25 373.85 C 1309.24 375.46, 1308.60 376.54, 1306.70 378.18 C 1304.80 379.82, 1303.54 380.79, 1300.75 382.05 C 1297.96 383.31, 1296.24 383.85, 1292.75 384.48 C 1289.26 385.10, 1287.24 385.23, 1283.31 385.19 C 1279.38 385.16, 1277.31 384.92, 1273.11 384.29 C 1268.90 383.66, 1266.72 383.09, 1262.28 382.05 C 1257.83 381.00, 1255.54 380.23, 1250.90 379.05 C 1246.26 377.87, 1243.92 377.12, 1239.09 376.14 C 1234.25 375.15, 1231.72 374.54, 1226.72 374.12 C 1221.71 373.70, 1219.09 373.49, 1214.06 374.02 C 1209.02 374.55, 1206.45 375.01, 1201.53 376.76 C 1196.60 378.51, 1194.06 379.72, 1189.41 382.76 C 1184.76 385.81, 1182.48 387.72, 1178.28 391.98 C 1174.07 396.24, 1172.02 398.87, 1168.37 404.05 C 1164.72 409.24, 1163.08 412.27, 1160.02 417.90 C 1156.96 423.54, 1155.66 426.77, 1153.08 432.22 C 1150.51 437.68, 1149.23 440.63, 1147.15 445.19 C 1145.08 449.74, 1143.51 451.77, 1142.72 454.99 C 1141.92 458.21, 1142.35 459.75, 1143.19 461.29 C 1144.03 462.83, 1145.57 463.36, 1146.93 462.67 C 1148.29 461.98, 1149.03 460.90, 1150.00 457.83 C 1150.96 454.76, 1150.74 452.22, 1151.76 447.32 C 1152.78 442.41, 1153.60 439.16, 1155.11 433.30 C 1156.61 427.44, 1157.57 423.90, 1159.29 418.03 C 1161.00 412.16, 1162.05 409.03, 1163.69 403.97 C 1165.34 398.91, 1166.38 396.43, 1167.52 392.73 C 1168.67 389.02, 1169.34 387.73, 1169.41 385.43 C 1169.49 383.13, 1168.99 382.30, 1167.91 381.24 C 1166.84 380.18, 1165.51 379.77, 1164.03 380.13" style="stroke: black; fill: black;"/></svg>