<svg xmlns="http://www.w3.org/2000/svg" id="canvas" viewBox="452.768 303.556 588.418 194.591"><path d="M 455.90,382.09 C 455.31 384.79, 456.84 388.60, 457.65 395.00 C 458.46 401.39, 458.98 406.04, 459.95 414.05 C 460.93 422.06, 461.53 427.28, 462.53 435.04 C 463.54 442.79, 464.03 446.47, 464.99 452.82 C 465.95 459.17, 466.34 461.84, 467.33 466.81 C 468.31 471.77, 468.48 474.09, 469.91 477.65 C 471.34 481.20, 472.09 482.85, 474.48 484.60 C 476.86 486.35, 478.96 486.94, 481.83 486.37 C 484.71 485.81, 486.35 484.94, 488.88 481.78 C 491.40 478.63, 491.87 476.22, 494.46 470.61 C 497.04 464.99, 498.49 461.45, 501.80 453.69 C 505.10 445.93, 506.99 441.14, 510.99 431.82 C 514.99 422.49, 517.30 417.06, 521.81 407.08 C 526.32 397.10, 528.89 391.57, 533.52 381.90 C 538.16 372.23, 540.56 367.21, 544.97 358.72 C 549.39 350.23, 551.65 346.16, 555.60 339.45 C 559.56 332.73, 561.44 329.81, 564.74 325.13 C 568.04 320.45, 569.97 318.89, 572.10 316.06 C 574.23 313.22, 574.60 312.52, 575.40 310.94 C 576.21 309.36, 576.27 309.03, 576.12 308.17 C 575.97 307.30, 575.59 306.75, 574.66 306.63 C 573.74 306.50, 573.03 306.41, 571.49 307.54 C 569.94 308.68, 569.06 309.28, 566.93 312.30 C 564.80 315.32, 563.76 317.59, 560.85 322.66 C 557.95 327.73, 556.16 330.73, 552.42 337.65 C 548.67 344.57, 546.45 348.67, 542.13 357.26 C 537.80 365.85, 535.42 370.89, 530.79 380.59 C 526.16 390.30, 523.57 395.82, 518.97 405.78 C 514.36 415.74, 512.00 421.17, 507.76 430.38 C 503.53 439.60, 501.51 444.36, 497.80 451.85 C 494.08 459.33, 492.26 462.81, 489.20 467.81 C 486.14 472.81, 484.36 474.35, 482.50 476.84 C 480.65 479.32, 480.60 479.70, 479.92 480.25 C 479.24 480.80, 479.78 480.67, 479.09 479.59 C 478.40 478.51, 477.78 477.65, 476.48 474.84 C 475.19 472.02, 473.99 470.04, 472.61 465.49 C 471.22 460.94, 470.68 458.27, 469.56 452.06 C 468.43 445.86, 468.01 442.17, 466.99 434.46 C 465.98 426.74, 465.42 421.51, 464.47 413.51 C 463.52 405.50, 463.01 400.83, 462.23 394.43 C 461.45 388.02, 461.85 383.94, 460.59 381.48 C 459.32 379.01, 456.49 379.39, 455.90 382.09" style="stroke: black; fill: black;"/><path d="M 631.40,407.93 C 631.30 406.35, 630.70 405.46, 629.09 404.23 C 627.49 403.01, 626.23 402.11, 623.38 401.80 C 620.53 401.50, 618.48 401.65, 614.85 402.73 C 611.23 403.80, 609.22 404.79, 605.25 407.17 C 601.27 409.55, 599.06 410.99, 594.96 414.62 C 590.87 418.25, 588.52 420.48, 584.77 425.33 C 581.01 430.17, 579.03 433.16, 576.21 438.83 C 573.39 444.51, 572.08 447.85, 570.67 453.71 C 569.25 459.58, 568.72 462.79, 569.11 468.17 C 569.50 473.54, 570.15 476.45, 572.61 480.60 C 575.07 484.75, 577.13 486.74, 581.41 488.91 C 585.70 491.09, 588.60 491.55, 594.04 491.49 C 599.48 491.44, 602.71 490.71, 608.61 488.64 C 614.50 486.56, 617.69 484.84, 623.50 481.12 C 629.31 477.41, 632.40 475.00, 637.66 470.08 C 642.92 465.17, 645.59 462.18, 649.81 456.55 C 654.03 450.91, 655.97 447.70, 658.77 441.90 C 661.56 436.10, 662.64 433.01, 663.79 427.55 C 664.94 422.10, 665.13 419.31, 664.51 414.63 C 663.90 409.95, 663.10 407.61, 660.72 404.15 C 658.33 400.70, 656.30 399.19, 652.58 397.35 C 648.86 395.52, 646.25 395.34, 642.11 394.98 C 637.97 394.62, 635.37 394.90, 631.87 395.57 C 628.37 396.23, 626.74 396.94, 624.59 398.32 C 622.44 399.69, 621.54 400.97, 621.12 402.44 C 620.70 403.91, 621.27 404.90, 622.49 405.67 C 623.71 406.45, 625.00 406.39, 627.23 406.31 C 629.47 406.24, 630.74 405.83, 633.66 405.31 C 636.59 404.80, 638.70 403.88, 641.86 403.74 C 645.01 403.59, 646.80 403.66, 649.43 404.59 C 652.06 405.52, 653.20 406.17, 654.99 408.38 C 656.77 410.58, 657.65 411.96, 658.34 415.60 C 659.04 419.23, 659.25 421.70, 658.45 426.54 C 657.65 431.39, 656.81 434.38, 654.34 439.82 C 651.87 445.27, 650.06 448.41, 646.08 453.78 C 642.11 459.14, 639.53 462.03, 634.48 466.65 C 629.44 471.27, 626.39 473.53, 620.86 476.88 C 615.33 480.23, 612.21 481.68, 606.85 483.39 C 601.48 485.10, 598.54 485.46, 594.01 485.44 C 589.49 485.42, 587.46 484.90, 584.24 483.30 C 581.01 481.70, 579.77 480.57, 577.90 477.45 C 576.03 474.33, 575.26 472.21, 574.88 467.72 C 574.50 463.22, 574.75 460.27, 575.99 454.98 C 577.23 449.70, 578.41 446.49, 581.08 441.29 C 583.74 436.09, 585.68 433.28, 589.29 428.97 C 592.91 424.67, 595.26 422.66, 599.16 419.76 C 603.07 416.85, 605.29 415.77, 608.83 414.45 C 612.37 413.13, 614.13 413.29, 616.87 413.14 C 619.60 412.98, 620.59 413.61, 622.48 413.67 C 624.37 413.73, 624.90 413.74, 626.33 413.42 C 627.76 413.11, 628.61 413.21, 629.62 412.11 C 630.64 411.01, 631.51 409.50, 631.40 407.93" style="stroke: black; fill: black;"/><path d="M 760.17,394.42 C 759.13 393.04, 757.77 392.04, 755.03 391.92 C 752.30 391.80, 750.43 392.46, 746.48 393.82 C 742.54 395.17, 740.03 396.16, 735.31 398.67 C 730.58 401.19, 727.87 402.78, 722.87 406.39 C 717.88 410.00, 715.14 412.19, 710.33 416.72 C 705.52 421.26, 702.87 423.88, 698.83 429.07 C 694.79 434.27, 692.81 437.22, 690.13 442.69 C 687.45 448.17, 686.32 451.09, 685.42 456.45 C 684.53 461.81, 684.40 464.68, 685.64 469.49 C 686.88 474.30, 688.24 476.94, 691.62 480.48 C 695.01 484.02, 699.75 486.81, 702.55 487.19 C 705.35 487.57, 706.89 484.61, 705.61 482.39 C 704.33 480.17, 698.99 478.99, 696.15 476.10 C 693.31 473.21, 692.45 471.71, 691.40 467.95 C 690.36 464.20, 690.25 461.93, 690.94 457.33 C 691.62 452.73, 692.45 449.98, 694.83 444.95 C 697.20 439.93, 699.02 437.06, 702.82 432.18 C 706.63 427.30, 709.20 424.75, 713.86 420.56 C 718.52 416.36, 721.25 414.28, 726.13 411.19 C 731.01 408.10, 733.72 406.86, 738.27 405.11 C 742.81 403.35, 745.28 403.16, 748.86 402.43 C 752.45 401.70, 753.91 402.18, 756.19 401.45 C 758.47 400.73, 759.45 400.20, 760.25 398.79 C 761.04 397.38, 761.21 395.79, 760.17 394.42" style="stroke: black; fill: black;"/><path d="M 862.84,414.00 C 862.78 412.35, 862.17 411.11, 860.31 409.64 C 858.44 408.18, 856.88 407.07, 853.52 406.67 C 850.15 406.27, 847.76 406.66, 843.49 407.65 C 839.22 408.64, 836.91 409.44, 832.17 411.62 C 827.44 413.79, 824.79 415.15, 819.82 418.52 C 814.85 421.88, 812.04 423.97, 807.32 428.43 C 802.60 432.89, 800.13 435.63, 796.22 440.81 C 792.31 445.99, 790.43 448.99, 787.78 454.33 C 785.12 459.68, 784.00 462.54, 782.93 467.54 C 781.86 472.55, 781.60 475.13, 782.42 479.36 C 783.24 483.60, 784.22 486.02, 787.03 488.72 C 789.84 491.43, 792.30 492.46, 796.47 492.88 C 800.64 493.30, 803.15 492.63, 807.85 490.82 C 812.56 489.01, 815.04 487.37, 820.01 483.83 C 824.97 480.29, 827.61 477.83, 832.67 473.12 C 837.73 468.41, 840.44 465.48, 845.31 460.27 C 850.17 455.05, 852.71 451.95, 856.99 447.03 C 861.28 442.12, 863.31 439.54, 866.75 435.68 C 870.19 431.82, 872.24 430.29, 874.19 427.73 C 876.15 425.17, 876.55 423.85, 876.53 422.87 C 876.50 421.90, 874.86 421.51, 874.06 422.84 C 873.26 424.17, 873.03 425.67, 872.55 429.51 C 872.07 433.35, 872.17 436.35, 871.67 442.03 C 871.17 447.71, 870.73 451.54, 870.05 457.92 C 869.38 464.30, 868.82 468.22, 868.29 473.93 C 867.75 479.64, 867.36 482.45, 867.39 486.46 C 867.42 490.48, 867.55 492.47, 868.44 493.99 C 869.33 495.51, 870.86 495.52, 871.83 494.09 C 872.80 492.65, 872.83 490.72, 873.30 486.80 C 873.77 482.88, 873.68 480.12, 874.20 474.49 C 874.73 468.86, 875.05 464.94, 875.94 458.64 C 876.83 452.34, 877.61 448.63, 878.66 442.98 C 879.70 437.33, 880.82 434.58, 881.15 430.37 C 881.47 426.17, 881.61 424.22, 880.30 421.95 C 878.99 419.69, 876.96 418.86, 874.61 419.05 C 872.25 419.24, 871.00 420.30, 868.54 422.91 C 866.09 425.52, 865.38 427.92, 862.32 432.10 C 859.25 436.28, 857.32 438.85, 853.22 443.83 C 849.11 448.80, 846.59 451.88, 841.79 456.98 C 837.00 462.07, 834.25 464.92, 829.23 469.31 C 824.22 473.71, 821.45 475.94, 816.71 478.94 C 811.97 481.94, 809.44 483.05, 805.53 484.31 C 801.63 485.56, 799.85 485.45, 797.21 485.22 C 794.56 484.98, 793.90 484.59, 792.30 483.13 C 790.70 481.68, 789.89 480.82, 789.20 477.93 C 788.51 475.04, 788.15 472.92, 788.84 468.67 C 789.53 464.42, 790.34 461.63, 792.65 456.68 C 794.95 451.73, 796.70 448.80, 800.36 443.93 C 804.03 439.07, 806.43 436.45, 810.96 432.37 C 815.48 428.28, 818.25 426.35, 823.00 423.51 C 827.76 420.66, 830.42 419.54, 834.74 418.14 C 839.07 416.74, 841.20 416.51, 844.63 416.51 C 848.06 416.51, 849.46 417.74, 851.90 418.16 C 854.33 418.57, 855.06 418.65, 856.81 418.60 C 858.55 418.54, 859.40 418.80, 860.61 417.88 C 861.82 416.96, 862.90 415.65, 862.84 414.00" style="stroke: black; fill: black;"/><path d="M 949.68,328.37 C 948.51 329.21, 947.93 329.67, 947.65 331.98 C 947.36 334.30, 948.05 335.66, 948.23 339.93 C 948.41 344.19, 948.83 347.10, 948.54 353.30 C 948.25 359.50, 947.85 363.45, 946.78 370.92 C 945.71 378.40, 944.81 382.76, 943.20 390.69 C 941.58 398.63, 940.53 402.97, 938.72 410.59 C 936.91 418.22, 935.87 422.16, 934.13 428.80 C 932.38 435.44, 931.48 438.64, 929.99 443.80 C 928.50 448.97, 927.11 451.13, 926.67 454.63 C 926.23 458.13, 926.47 459.60, 927.78 461.29 C 929.08 462.97, 930.95 463.59, 933.20 463.06 C 935.44 462.53, 936.73 461.49, 939.01 458.63 C 941.28 455.77, 941.79 453.11, 944.59 448.76 C 947.38 444.40, 949.07 441.51, 952.97 436.85 C 956.87 432.19, 959.28 429.55, 964.07 425.46 C 968.86 421.37, 971.64 419.32, 976.90 416.39 C 982.15 413.45, 985.09 412.32, 990.35 410.80 C 995.62 409.28, 998.41 408.89, 1003.24 408.79 C 1008.08 408.69, 1010.49 409.07, 1014.53 410.31 C 1018.57 411.54, 1020.51 412.61, 1023.44 414.97 C 1026.37 417.33, 1027.54 418.83, 1029.18 422.10 C 1030.82 425.36, 1031.42 427.32, 1031.63 431.31 C 1031.83 435.30, 1031.69 437.62, 1030.20 442.04 C 1028.71 446.47, 1027.51 448.99, 1024.19 453.44 C 1020.87 457.89, 1018.57 460.32, 1013.58 464.30 C 1008.58 468.29, 1005.44 470.26, 999.22 473.34 C 993.00 476.42, 989.28 477.79, 982.47 479.70 C 975.67 481.61, 971.77 482.28, 965.19 482.90 C 958.60 483.52, 955.12 483.42, 949.55 482.78 C 943.97 482.13, 941.30 481.36, 937.32 479.67 C 933.34 477.99, 932.08 476.03, 929.66 474.35 C 927.23 472.67, 926.63 472.21, 925.20 471.28 C 923.77 470.36, 923.54 469.79, 922.50 469.74 C 921.47 469.68, 920.46 469.89, 920.05 471.02 C 919.63 472.15, 919.39 473.43, 920.43 475.38 C 921.48 477.34, 922.30 478.81, 925.27 480.80 C 928.25 482.79, 930.55 483.94, 935.32 485.34 C 940.08 486.74, 943.02 487.38, 949.08 487.81 C 955.15 488.24, 958.73 488.25, 965.65 487.49 C 972.57 486.72, 976.57 486.00, 983.68 484.00 C 990.80 482.00, 994.65 480.63, 1001.24 477.47 C 1007.82 474.32, 1011.16 472.35, 1016.61 468.21 C 1022.07 464.08, 1024.66 461.61, 1028.52 456.79 C 1032.38 451.96, 1033.98 449.23, 1035.91 444.08 C 1037.84 438.93, 1038.31 436.05, 1038.16 431.05 C 1038.01 426.05, 1037.31 423.32, 1035.17 419.08 C 1033.03 414.84, 1031.25 412.77, 1027.46 409.85 C 1023.67 406.92, 1021.10 405.79, 1016.21 404.46 C 1011.33 403.13, 1008.51 402.93, 1003.04 403.20 C 997.57 403.47, 994.58 404.05, 988.87 405.81 C 983.15 407.57, 980.07 408.86, 974.45 411.99 C 968.82 415.12, 965.92 417.29, 960.75 421.47 C 955.58 425.65, 953.06 428.35, 948.61 432.90 C 944.16 437.45, 942.00 440.17, 938.51 444.21 C 935.02 448.25, 932.99 450.13, 931.16 453.10 C 929.33 456.06, 929.24 457.52, 929.35 459.02 C 929.46 460.52, 930.81 461.23, 931.71 460.60 C 932.61 459.97, 933.15 458.98, 933.84 455.87 C 934.54 452.75, 934.28 450.22, 935.20 445.02 C 936.12 439.81, 936.95 436.55, 938.45 429.85 C 939.96 423.16, 940.97 419.20, 942.74 411.54 C 944.51 403.88, 945.57 399.53, 947.32 391.56 C 949.07 383.60, 950.04 379.24, 951.48 371.71 C 952.92 364.18, 953.56 360.23, 954.53 353.91 C 955.51 347.60, 955.95 344.63, 956.36 340.14 C 956.77 335.65, 957.16 333.91, 956.59 331.45 C 956.01 328.98, 954.87 328.42, 953.49 327.81 C 952.10 327.19, 950.85 327.54, 949.68 328.37" style="stroke: black; fill: black;"/></svg>